<?xml version="1.0" encoding="UTF-8"?>
<svg width="60px" height="60px" viewBox="0 0 60 60" version="1.1" xmlns="http://www.w3.org/2000/svg" xmlns:xlink="http://www.w3.org/1999/xlink">
    <!-- Generator: Sketch 47.1 (45422) - http://www.bohemiancoding.com/sketch -->
    <title>LinkedIN</title>
    <desc>Created with Sketch.</desc>
    <defs></defs>
    <g id="Page-1" stroke="none" stroke-width="1" fill="none" fill-rule="evenodd">
        <g id="Social_icons_black" transform="translate(-600.000000, -200.000000)" fill="#4df1aa">
            <g id="LinkedIN" transform="translate(600.000000, 200.000000)">
                <path d="M0,30 C0,13.4314567 13.4314567,0 30,0 C46.5685433,0 60,13.4314567 60,30 C60,46.5685433 46.5685433,60 30,60 C13.4314567,60 0,46.5685433 0,30 Z M21.2006775,24.8473104 L14.4020214,24.8473104 L14.4020214,45.2744497 L21.2006775,45.2744497 L21.2006775,24.8473104 Z M21.6484541,18.5283721 C21.6043281,16.5255041 20.1720674,15 17.84629,15 C15.5205126,15 14,16.5255041 14,18.5283721 C14,20.4897539 15.475572,22.0591846 17.7580381,22.0591846 L17.8014852,22.0591846 C20.1720674,22.0591846 21.6484541,20.4897539 21.6484541,18.5283721 Z M45.719232,33.5621523 C45.719232,27.2878186 42.3652519,24.3676416 37.8914228,24.3676416 C34.2817837,24.3676416 32.6656875,26.3503088 31.7633456,27.7411856 L31.7633456,24.8478527 L24.9638749,24.8478527 C25.0534846,26.7646298 24.9638749,45.274992 24.9638749,45.274992 L31.7633456,45.274992 L31.7633456,33.8667921 C31.7633456,33.2562922 31.8074716,32.6472837 31.9872339,32.2101858 C32.4785934,30.9905418 33.5973562,29.7277845 35.4756285,29.7277845 C37.9367708,29.7277845 38.920576,31.6009061 38.920576,34.3459186 L38.920576,45.2744497 L45.7189605,45.2744497 L45.719232,33.5621523 Z" id="Combined-Shape"></path>
            </g>
        </g>
    </g>
</svg>